<?xml version="1.0" standalone="no"?>
<!DOCTYPE svg PUBLIC "-//W3C//DTD SVG 20010904//EN"
 "http://www.w3.org/TR/2001/REC-SVG-20010904/DTD/svg10.dtd">
<svg version="1.0" xmlns="http://www.w3.org/2000/svg"
 width="700.000000pt" height="700.000000pt" viewBox="0 0 700.000000 700.000000"
 preserveAspectRatio="xMidYMid meet">
<metadata>
Created by potrace 1.14, written by Peter Selinger 2001-2017
</metadata>
<g transform="translate(0.000000,700.000000) scale(0.100000,-0.100000)"
fill="#000000" stroke="none">
<path d="M1382 6140 c-259 -68 -456 -266 -522 -526 -20 -76 -20 -120 -20
-2114 0 -1994 0 -2038 20 -2114 67 -262 264 -459 526 -526 76 -20 120 -20
2114 -20 1994 0 2038 0 2114 20 262 67 459 264 526 526 20 76 20 120 20 2114
0 1978 -1 2039 -19 2112 -67 262 -266 462 -527 528 -76 20 -119 20 -2118 19
-1975 0 -2043 -1 -2114 -19z m2166 -952 c2 -101 5 -128 17 -128 7 0 27 -12 44
-26 l31 -26 0 -181 0 -182 42 -20 c57 -27 128 -102 164 -172 26 -53 29 -67 29
-158 0 -93 -2 -105 -32 -165 -18 -36 -45 -78 -61 -93 l-30 -28 147 -367 147
-367 227 -3 227 -2 0 -75 0 -75 -195 0 c-107 0 -195 -2 -195 -3 0 -2 81 -206
181 -453 181 -449 228 -591 269 -801 25 -129 26 -171 3 -180 -32 -13 -129 119
-248 341 -26 48 -138 313 -249 589 l-203 502 -156 3 -157 3 0 -86 0 -85 -50 0
-50 0 0 85 0 86 -157 -3 -157 -3 -201 -500 c-204 -509 -213 -530 -293 -670
-102 -178 -176 -273 -206 -262 -22 8 -20 53 4 179 41 213 80 330 260 779 101
250 185 460 187 467 4 9 -38 12 -191 12 l-196 0 0 75 0 75 227 2 226 3 148
365 147 365 -35 39 c-19 21 -47 64 -62 95 -22 48 -26 69 -26 151 0 86 3 101
31 160 35 73 106 149 165 176 l39 17 0 183 0 182 31 26 c17 14 37 26 45 26 11
0 14 23 14 123 0 68 3 127 7 131 4 4 25 6 48 4 l40 -3 3 -127z"/>
<path d="M3455 4478 c-50 -10 -107 -56 -129 -102 -9 -19 -16 -58 -16 -88 0
-188 250 -258 352 -99 26 41 29 53 26 113 -3 57 -8 73 -34 104 -50 63 -123 89
-199 72z"/>
<path d="M3331 3603 c-68 -170 -126 -314 -128 -320 -4 -10 24 -13 120 -13
l126 0 3 58 3 57 45 0 45 0 3 -57 3 -58 125 0 124 0 -13 33 c-7 17 -65 161
-128 319 l-114 288 -45 0 -45 0 -124 -307z"/>
</g>
</svg>
